# xmcd
# Track frame offsets:
# 150
# 17189
# 33741
# 49625
# 67807
# 85365
# 101066
# 114164
# 128010
# 145267
# 162306
# 178858
# 194742
# 212924
# 230482
# 246183
# 259281
# 273127
#
# Disc length: 3871 seconds
# Revision: 0
# Processed by: cddbd v1.5.2PL0 Copyright (c) Steve Scherf et al.
# Submitted via: VisiTrax 2.11.3.279 - For more info visit www.synapsa.com
#
DISCID=080f1d12
DTITLE=Various Artist - PHMC21003-12
DYEAR=2010
DGENRE=Country
TTITLE0=Keith Urban - Put You In A Song
TTITLE1=Reba McEntire - Turn On The Radio
TTITLE2=Jerrod Niemann - What Do You Want
TTITLE3=Adam Brand - Ready For Love
TTITLE4=Gary Allen - Kiss Me When I'm Down
TTITLE5=Randy Houser - A Man Like Me
TTITLE6=Trailer Choir - Shakin' That Tailgate
TTITLE7=Melanie Denard - All I Ever Did Was Love You
TTITLE8=Derek O'Bannon - Truth Talks Too Much, The
TTITLE9=Keith Urban - Put You In A Song
TTITLE10=Reba McEntire - Turn On The Radio
TTITLE11=Jerrod Niemann - What Do You Want
TTITLE12=Adam Brand - Ready For Love
TTITLE13=Gary Allen - Kiss Me When I'm Down
TTITLE14=Randy Houser - A Man Like Me
TTITLE15=Trailer Choir - Shakin' That Tailgate
TTITLE16=Melanie Denard - All I Ever Did Was Love You
TTITLE17=Derek O'Bannon - Truth Talks Too Much, The
EXTD=
EXTT0=
EXTT1=
EXTT2=
EXTT3=
EXTT4=
EXTT5=
EXTT6=
EXTT7=
EXTT8=
EXTT9=
EXTT10=
EXTT11=
EXTT12=
EXTT13=
EXTT14=
EXTT15=
EXTT16=
EXTT17=
PLAYORDER=
